# This file uses centimeters as units for non-parametric coordinates.

mtllib home1LP.mtl
g default
v -6.636867 0.205741 1.033957
v -6.311580 0.205741 1.033957
v -6.611668 4.252245 1.033957
v -6.311580 4.252245 1.033957
v -6.611668 4.252245 -1.033957
v -6.311580 4.252245 -1.033957
v -6.636867 0.205741 -1.033957
v -6.311580 0.205741 -1.033957
v -6.645967 0.327026 -0.958648
v -6.645967 0.327026 0.946620
v -6.611668 4.131896 -0.943957
v -6.611668 4.131896 0.943957
v -6.436662 0.326090 -0.943957
v -6.436662 0.326090 0.943957
v -6.436662 4.131896 -0.943957
v -6.436662 4.131896 0.943957
v -6.611668 0.290814 1.033957
v -6.311580 0.290814 1.033957
v -6.311580 0.290814 -1.033957
v -6.611668 0.290814 -1.033957
v -6.636867 0.204805 0.936305
v -6.636867 0.204805 -0.956838
v -6.375030 0.167363 6.355517
v 6.375030 0.167363 6.355517
v -6.336135 7.013986 6.316829
v 6.336135 7.013986 6.316829
v -6.275212 7.013986 -6.288399
v 6.275212 7.013986 -6.288399
v -6.313732 0.167363 -6.327087
v 6.313732 0.167363 -6.327087
v -6.336135 11.898200 0.193627
v 6.336135 11.898200 0.193627
v 6.275212 11.898200 -0.165198
v -6.275212 11.898200 -0.165198
v -6.336135 9.623709 3.612590
v 6.336135 9.623709 3.612590
v 6.275212 9.623709 -3.584161
v -6.275212 9.623709 -3.584161
v 1.421009 1.806034 -6.317833
v 1.438574 4.702205 -6.301460
v -1.428777 4.697185 -6.301493
v -1.438111 1.802525 -6.317845
v -1.438111 1.802525 -6.813749
v 1.421009 1.806034 -6.813737
v -1.428777 4.697185 -6.797399
v 1.438574 4.702205 -6.797364
v -1.309755 1.931907 -6.813019
v 1.294220 1.935103 -6.813009
v -1.301253 4.568251 -6.798125
v 1.310218 4.572823 -6.798096
v -1.309755 1.931907 -6.450130
v 1.294220 1.935103 -6.450120
v -1.301253 4.568251 -6.435237
v 1.310218 4.572823 -6.435207
v -6.423973 2.169024 -0.778061
v -6.423973 2.112957 -0.801285
v -6.423973 2.056889 -0.778061
v -6.423973 2.033664 -0.721993
v -6.423973 2.056889 -0.665925
v -6.423973 2.112957 -0.642701
v -6.423973 2.169024 -0.665925
v -6.423973 2.192249 -0.721993
v -6.503265 2.192249 -0.801285
v -6.503265 2.112957 -0.834129
v -6.503265 2.033664 -0.801285
v -6.503265 2.000821 -0.721993
v -6.503265 2.033664 -0.642701
v -6.503265 2.112957 -0.609857
v -6.503265 2.192249 -0.642701
v -6.503265 2.225093 -0.721993
v -6.582557 2.169024 -0.778061
v -6.582557 2.112957 -0.801285
v -6.582557 2.056889 -0.778061
v -6.582557 2.033664 -0.721993
v -6.582557 2.056889 -0.665925
v -6.582557 2.112957 -0.642701
v -6.582557 2.169024 -0.665925
v -6.582557 2.192249 -0.721993
v -6.615400 2.112957 -0.721993
vt 0.384782 0.300633
vt 0.347685 0.362761
vt 0.415464 0.254434
vt 0.309041 0.383344
vt 0.457951 0.052354
vt 0.491047 0.232123
vt 0.496594 0.030043
vt 0.309127 0.321215
vt 0.309042 0.418559
vt 0.309157 0.339926
vt 0.310720 0.319523
vt 0.310755 0.298941
vt 0.489457 0.232159
vt 0.489492 0.252742
vt 0.344321 0.406555
vt 0.309145 0.339941
vt 0.380227 0.325554
vt 0.344371 0.387772
vt 0.309042 0.402128
vt 0.380245 0.325569
vt 0.346004 0.436169
vt 0.381838 0.336875
vt 0.309041 0.444424
vt 0.452643 0.341367
vt 0.309066 0.429054
vt 0.310588 0.431710
vt 0.455208 0.336875
vt 0.454540 0.330492
vt 0.347777 0.422992
vt 0.345956 0.423340
vt 0.310623 0.423314
vt 0.415430 0.189732
vt 0.415430 0.060239
vt 0.486550 0.060239
vt 0.486550 0.189732
vt 0.309186 0.422992
vt 0.384747 0.321215
vt 0.309041 0.362761
vt 0.347685 0.383344
vt 0.415429 0.233851
vt 0.491085 0.254434
vt 0.457951 0.030043
vt 0.496594 0.052354
vt 0.309165 0.298904
vt 0.309042 0.406555
vt 0.309127 0.327923
vt 0.380262 0.339926
vt 0.309091 0.387772
vt 0.344646 0.402128
vt 0.380244 0.339941
vt 0.309145 0.327941
vt 0.344321 0.418559
vt 0.346148 0.431736
vt 0.347878 0.429059
vt 0.382367 0.341853
vt 0.381702 0.347468
vt 0.347686 0.444424
vt 0.384067 0.330757
vt 0.454866 0.347468
vt 0.310723 0.436169
vt 0.742501 0.503421
vt 0.504237 0.503421
vt 0.504964 0.033799
vt 0.741775 0.033799
vt 0.160854 0.030043
vt 0.160854 0.899242
vt 0.154148 0.895063
vt 0.154148 0.034221
vt 0.505435 0.507849
vt 0.739968 0.507849
vt 0.740688 0.977470
vt 0.649256 0.865071
vt 0.649585 0.666418
vt 0.596002 0.666762
vt 0.595827 0.865312
vt 0.504715 0.977471
vt 0.992921 0.877724
vt 0.755933 0.877724
vt 0.756653 0.408140
vt 0.992195 0.408140
vt 0.992921 0.877724
vt 0.755933 0.877725
vt 0.756660 0.408140
vt 0.992202 0.408140
vt 0.237591 0.030043
vt 0.237591 0.899242
vt 0.941664 0.229149
vt 0.807182 0.229145
vt 0.870981 0.072668
vt 0.877781 0.073138
vt 0.077410 0.895064
vt 0.077410 0.034222
vt 0.941671 0.229149
vt 0.807189 0.229146
vt 0.870988 0.072668
vt 0.877788 0.073138
vt 0.307821 0.030043
vt 0.307821 0.899242
vt 0.007181 0.895063
vt 0.007181 0.034221
vt 0.309127 0.233542
vt 0.309185 0.054933
vt 0.358452 0.055955
vt 0.358419 0.235078
vt 0.415430 0.194159
vt 0.468859 0.194159
vt 0.468859 0.228174
vt 0.415430 0.228174
vt 0.470924 0.296789
vt 0.416830 0.296789
vt 0.416882 0.262775
vt 0.470977 0.262776
vt 0.363247 0.295681
vt 0.363300 0.261667
vt 0.309127 0.293436
vt 0.309180 0.259422
vt 0.413893 0.060947
vt 0.414131 0.257052
vt 0.411706 0.248277
vt 0.411489 0.069672
vt 0.360037 0.257052
vt 0.362439 0.248277
vt 0.359770 0.060383
vt 0.362196 0.069158
vt 0.386047 0.301217
vt 0.434708 0.301217
vt 0.434708 0.326107
vt 0.386047 0.326107
vt 0.309185 0.030042
vt 0.358452 0.031064
vt 0.407253 0.031065
vt 0.407253 0.055956
vt 0.456546 0.030042
vt 0.456546 0.054934
vt 0.490814 0.068828
vt 0.490743 0.063027
vt 0.492101 0.063006
vt 0.492136 0.068867
vt 0.489520 0.068812
vt 0.489337 0.063068
vt 0.488332 0.069209
vt 0.487810 0.063177
vt 0.497403 0.068872
vt 0.497552 0.062921
vt 0.499079 0.062812
vt 0.498623 0.069209
vt 0.496114 0.068857
vt 0.496146 0.062962
vt 0.494795 0.068876
vt 0.494788 0.062984
vt 0.493466 0.068882
vt 0.493444 0.062995
vt 0.490775 0.057132
vt 0.492094 0.057113
vt 0.489486 0.057118
vt 0.488266 0.056780
vt 0.497369 0.057177
vt 0.498557 0.056781
vt 0.496075 0.057161
vt 0.494753 0.057122
vt 0.493423 0.057107
vt 0.350962 0.362794
vt 0.350368 0.368056
vt 0.349774 0.362795
vt 0.351801 0.365877
vt 0.351801 0.370235
vt 0.350962 0.373318
vt 0.349774 0.373317
vt 0.348934 0.370235
vt 0.348934 0.365877
vn 0.000000 1.000000 0.000000
vn 0.000000 1.000000 0.000000
vn 0.000000 1.000000 0.000000
vn 0.000000 1.000000 0.000000
vn 0.000000 -1.000000 0.000000
vn 0.000000 -1.000000 0.000000
vn 0.000000 -1.000000 0.000000
vn 0.000000 -1.000000 0.000000
vn -0.993031 0.002761 0.117824
vn -0.995454 0.002231 0.095220
vn -0.995135 0.002308 -0.098493
vn -0.992427 0.002877 -0.122803
vn 0.000000 0.000000 1.000000
vn 0.000000 0.000000 1.000000
vn 0.000000 0.000000 1.000000
vn 0.000000 0.000000 1.000000
vn 0.000000 0.000000 -1.000000
vn 0.000000 0.000000 -1.000000
vn 0.000000 0.000000 -1.000000
vn 0.000000 0.000000 -1.000000
vn -1.000000 0.000000 0.000000
vn -1.000000 0.000000 0.000000
vn -1.000000 0.000000 0.000000
vn -1.000000 0.000000 0.000000
vn -0.979609 0.004706 -0.200857
vn -0.979609 0.004706 -0.200857
vn -0.982183 0.004402 0.187877
vn -0.982183 0.004402 0.187877
vn 0.000000 -1.000000 0.000000
vn 0.000000 -1.000000 0.000000
vn 0.000000 -1.000000 0.000000
vn 0.000000 -1.000000 0.000000
vn -0.038202 -0.001757 0.999269
vn -0.038202 -0.001757 0.999269
vn -0.038202 -0.001757 0.999269
vn -0.038202 -0.001757 0.999269
vn 0.004470 0.999990 0.000000
vn 0.004470 0.999990 0.000000
vn 0.004470 0.999990 0.000000
vn 0.004470 0.999990 0.000000
vn -0.006930 -0.000319 -0.999976
vn -0.006930 -0.000319 -0.999976
vn -0.006930 -0.000319 -0.999976
vn -0.006930 -0.000319 -0.999976
vn 0.000000 0.000000 1.000000
vn 0.000000 0.000000 1.000000
vn 0.000000 0.000000 -1.000000
vn 0.000000 0.000000 -1.000000
vn -0.978731 0.066350 0.194120
vn -0.978731 0.066350 0.194120
vn -0.978731 0.066350 0.194120
vn -0.978731 0.066350 0.194120
vn -0.969225 0.073223 -0.235036
vn -0.969225 0.073223 -0.235036
vn -0.969225 0.073223 -0.235036
vn -0.969225 0.073223 -0.235036
vn -0.997240 -0.074249 0.000000
vn -0.997240 -0.074249 0.000000
vn -0.997240 -0.074249 0.000000
vn -0.997240 -0.074249 0.000000
vn 0.000000 0.005651 0.999984
vn 0.000000 0.005651 0.999984
vn 0.000000 0.005651 0.999984
vn 0.000000 0.005651 0.999984
vn 0.000000 1.000000 -0.000002
vn 0.000000 1.000000 -0.000002
vn 0.000000 1.000000 -0.000002
vn 0.000000 1.000000 -0.000002
vn 0.000000 0.005651 -0.999984
vn 0.000000 0.005651 -0.999984
vn 0.000000 0.005651 -0.999984
vn -0.000000 0.005650 -0.999984
vn 0.000000 0.005651 -0.999984
vn 0.000000 0.005651 -0.999984
vn -0.000000 0.005650 -0.999984
vn 0.000000 0.005651 -0.999984
vn 0.999972 0.005653 -0.004833
vn 0.999972 0.005653 -0.004833
vn 0.999972 0.005653 -0.004833
vn 0.999972 0.005653 -0.004833
vn -0.999972 0.005653 -0.004833
vn -0.999972 0.005653 -0.004833
vn -0.999972 0.005653 -0.004833
vn -0.999972 0.005653 -0.004833
vn 0.000000 0.781762 0.623577
vn 0.000000 0.781762 0.623577
vn 0.000000 0.832591 0.553888
vn 0.000000 0.832591 0.553888
vn 0.999976 0.000000 -0.006911
vn 0.999976 0.000000 -0.006911
vn 0.999870 0.000000 -0.016125
vn 0.999870 0.000000 -0.016125
vn 0.000000 0.781762 -0.623578
vn 0.000000 0.781762 -0.623578
vn 0.000000 0.832591 -0.553888
vn 0.000000 0.832591 -0.553888
vn -0.999976 0.000000 -0.006911
vn -0.999976 0.000000 -0.006911
vn -0.999870 0.000000 -0.016125
vn -0.999870 0.000000 -0.016125
vn 0.000000 0.719570 0.694420
vn 0.000000 0.719570 0.694420
vn 0.999981 0.000000 -0.006153
vn 0.999981 0.000000 -0.006153
vn 0.000000 0.719570 -0.694420
vn 0.000000 0.719570 -0.694420
vn -0.999981 0.000000 -0.006153
vn -0.999981 0.000000 -0.006153
vn -0.000001 0.005651 -0.999984
vn -0.000001 0.005651 -0.999984
vn -0.000001 0.005651 -0.999984
vn -0.000001 0.005651 -0.999984
vn 0.001227 -0.999999 0.000000
vn 0.001227 -0.999999 0.000000
vn 0.001227 -0.999999 0.000000
vn 0.001227 -0.999999 0.000000
vn -0.999995 0.003225 0.000000
vn -0.999995 0.003225 0.000000
vn -0.999995 0.003225 0.000000
vn -0.999995 0.003225 0.000000
vn -0.001751 0.999999 0.000000
vn -0.001751 0.999999 0.000000
vn -0.001751 0.999999 0.000000
vn -0.001751 0.999999 0.000000
vn 0.999982 -0.006065 0.000000
vn 0.999982 -0.006065 0.000000
vn 0.999982 -0.006065 0.000000
vn 0.999982 -0.006065 0.000000
vn -0.000003 0.005644 -0.999984
vn -0.000003 0.005644 -0.999984
vn -0.000003 0.005644 -0.999984
vn -0.000003 0.005644 -0.999984
vn 0.000007 0.005649 -0.999984
vn 0.000007 0.005649 -0.999984
vn 0.000007 0.005649 -0.999984
vn 0.000007 0.005649 -0.999984
vn 0.000002 0.005647 -0.999984
vn 0.000002 0.005647 -0.999984
vn 0.000002 0.005647 -0.999984
vn 0.000002 0.005647 -0.999984
vn 0.000004 0.005654 -0.999984
vn 0.000004 0.005654 -0.999984
vn 0.000004 0.005654 -0.999984
vn 0.000004 0.005654 -0.999984
vn -0.001227 0.999999 0.000000
vn -0.001227 0.999999 0.000000
vn -0.001227 0.999999 0.000000
vn -0.001227 0.999999 0.000000
vn 0.999995 -0.003225 0.000000
vn 0.999995 -0.003225 0.000000
vn 0.999995 -0.003225 0.000000
vn 0.999995 -0.003225 0.000000
vn 0.001751 -0.999999 0.000000
vn 0.001751 -0.999999 0.000000
vn 0.001751 -0.999999 0.000000
vn 0.001751 -0.999999 0.000000
vn -0.999982 0.006065 0.000000
vn -0.999982 0.006065 0.000000
vn -0.999982 0.006065 0.000000
vn -0.999982 0.006065 0.000000
vn 0.357406 0.357404 -0.862858
vn 0.357406 0.357404 -0.862858
vn 0.357406 0.357404 -0.862858
vn 0.357406 0.357404 -0.862858
vn 0.357407 -0.357405 -0.862857
vn 0.357407 -0.357405 -0.862857
vn 0.357407 -0.357405 -0.862857
vn 0.357407 -0.357405 -0.862857
vn 0.357405 -0.862857 -0.357408
vn 0.357405 -0.862857 -0.357408
vn 0.357405 -0.862857 -0.357408
vn 0.357405 -0.862857 -0.357408
vn 0.357406 -0.862856 0.357409
vn 0.357406 -0.862856 0.357409
vn 0.357406 -0.862856 0.357409
vn 0.357406 -0.862856 0.357409
vn 0.357407 -0.357405 0.862857
vn 0.357407 -0.357405 0.862857
vn 0.357407 -0.357405 0.862857
vn 0.357407 -0.357405 0.862857
vn 0.357407 0.357404 0.862857
vn 0.357407 0.357404 0.862857
vn 0.357407 0.357404 0.862857
vn 0.357407 0.357404 0.862857
vn 0.357408 0.862855 0.357409
vn 0.357408 0.862855 0.357409
vn 0.357409 0.862855 0.357409
vn 0.357408 0.862855 0.357409
vn 0.357407 0.862856 -0.357407
vn 0.357407 0.862856 -0.357407
vn 0.357407 0.862856 -0.357407
vn 0.357407 0.862856 -0.357407
vn -0.357405 0.357406 -0.862857
vn -0.357405 0.357406 -0.862857
vn -0.357405 0.357406 -0.862857
vn -0.357405 0.357406 -0.862857
vn -0.357406 -0.357407 -0.862856
vn -0.357406 -0.357407 -0.862856
vn -0.357406 -0.357407 -0.862856
vn -0.357406 -0.357407 -0.862856
vn -0.357406 -0.862855 -0.357409
vn -0.357406 -0.862855 -0.357409
vn -0.357406 -0.862855 -0.357409
vn -0.357406 -0.862855 -0.357409
vn -0.357403 -0.862858 0.357406
vn -0.357403 -0.862858 0.357406
vn -0.357403 -0.862858 0.357406
vn -0.357403 -0.862858 0.357406
vn -0.357407 -0.357407 0.862856
vn -0.357407 -0.357407 0.862856
vn -0.357407 -0.357407 0.862856
vn -0.357407 -0.357407 0.862856
vn -0.357407 0.357406 0.862857
vn -0.357407 0.357406 0.862856
vn -0.357407 0.357406 0.862856
vn -0.357407 0.357406 0.862856
vn -0.357406 0.862857 0.357406
vn -0.357406 0.862857 0.357406
vn -0.357406 0.862857 0.357406
vn -0.357406 0.862857 0.357406
vn -0.357409 0.862855 -0.357409
vn -0.357409 0.862855 -0.357409
vn -0.357409 0.862855 -0.357409
vn -0.357409 0.862855 -0.357409
vn -0.912489 0.156563 -0.377956
vn -0.912489 0.156563 -0.377956
vn -0.912490 0.156563 -0.377956
vn -0.912491 -0.156562 -0.377954
vn -0.912491 -0.156562 -0.377954
vn -0.912491 -0.156562 -0.377954
vn -0.912488 -0.377963 -0.156556
vn -0.912488 -0.377963 -0.156556
vn -0.912488 -0.377963 -0.156556
vn -0.912492 -0.377952 0.156556
vn -0.912492 -0.377952 0.156556
vn -0.912492 -0.377952 0.156556
vn -0.912491 -0.156562 0.377954
vn -0.912491 -0.156562 0.377954
vn -0.912491 -0.156562 0.377954
vn -0.912489 0.156563 0.377957
vn -0.912489 0.156563 0.377957
vn -0.912489 0.156563 0.377957
vn -0.912492 0.377953 0.156557
vn -0.912492 0.377953 0.156557
vn -0.912492 0.377953 0.156557
vn -0.912488 0.377963 -0.156556
vn -0.912488 0.377963 -0.156556
vn -0.912488 0.377963 -0.156556
s off
g home
usemtl initialShadingGroup
f 4/38/1 6/2/2 5/39/3 3/4/4
f 7/5/5 8/42/6 2/7/7 1/43/8
s 1
f 12/21/9 3/57/10 5/23/11 11/60/12
s 2
f 3/37/13 17/11/14 18/12/15 4/1/16
s 3
f 19/13/17 20/14/18 5/3/19 6/40/20
s off
f 16/32/21 15/33/22 13/34/23 14/35/24
s 1
f 11/24/12 5/59/11 20/56/25 9/55/26
f 17/27/27 3/22/10 12/58/9 10/28/28
s off
f 16/9/29 12/45/30 11/15/31 15/52/32
f 15/16/33 11/51/34 9/17/35 13/50/36
f 10/19/37 14/48/38 13/18/39 9/49/40
f 10/47/41 12/10/42 16/46/43 14/20/44
s 2
f 1/8/45 2/44/46 18/12/15 17/11/14
s 3
f 19/13/17 8/6/47 7/41/48 20/14/18
s off
f 1/29/49 17/54/50 10/53/51 21/30/52
f 20/25/53 7/36/54 22/31/55 9/26/56
f 10/53/57 9/26/58 22/31/59 21/30/60
f 23/61/61 24/62/62 26/63/63 25/64/64
f 31/65/65 32/66/66 33/67/67 34/68/68
s 4
f 27/69/69 28/70/70 30/71/71 39/72/72 40/73/73 41/74/74 42/75/75 29/76/76
s off
f 24/77/77 30/78/78 28/79/79 26/80/80
f 29/81/81 23/82/82 25/83/83 27/84/84
s 5
f 35/85/85 36/86/86 32/66/87 31/65/88
s 6
f 36/87/89 37/88/90 33/89/91 32/90/92
s 7
f 37/91/93 38/92/94 34/68/95 33/67/96
s 8
f 38/93/97 35/94/98 31/95/99 34/96/100
s 5
f 25/97/101 26/98/102 36/86/86 35/85/85
s 6
f 26/80/103 28/79/104 37/88/90 36/87/89
s 7
f 28/99/105 27/100/106 38/92/94 37/91/93
s 8
f 27/84/107 25/83/108 35/94/98 38/93/97
s 4
f 29/76/76 42/75/75 39/72/72 30/71/71
s off
f 52/101/109 51/102/110 53/103/111 54/104/112
f 39/105/113 42/106/114 43/107/115 44/108/116
f 42/109/117 41/110/118 45/111/119 43/112/120
f 41/110/121 40/113/122 46/114/123 45/111/124
f 40/113/125 39/115/126 44/116/127 46/114/128
f 44/117/129 43/118/130 47/119/131 48/120/132
f 43/118/133 45/121/134 49/122/135 47/119/136
f 45/121/137 46/123/138 50/124/139 49/122/140
f 46/123/141 44/117/142 48/120/143 50/124/144
f 48/125/145 47/126/146 51/127/147 52/128/148
f 47/129/149 49/130/150 53/103/151 51/102/152
f 49/130/153 50/131/154 54/132/155 53/103/156
f 50/131/157 48/133/158 52/134/159 54/132/160
f 56/135/161 64/136/162 63/137/163 55/138/164
f 57/139/165 65/140/166 64/136/167 56/135/168
f 58/141/169 66/142/170 65/140/171 57/139/172
f 59/143/173 67/144/174 66/145/175 58/146/176
f 60/147/177 68/148/178 67/144/179 59/143/180
f 61/149/181 69/150/182 68/148/183 60/147/184
f 62/151/185 70/152/186 69/150/187 61/149/188
f 55/138/189 63/137/190 70/152/191 62/151/192
f 64/136/193 72/153/194 71/154/195 63/137/196
f 65/140/197 73/155/198 72/153/199 64/136/200
f 66/142/201 74/156/202 73/155/203 65/140/204
f 67/144/205 75/157/206 74/158/207 66/145/208
f 68/148/209 76/159/210 75/157/211 67/144/212
f 69/150/213 77/160/214 76/159/215 68/148/216
f 70/152/217 78/161/218 77/160/219 69/150/220
f 63/137/221 71/154/222 78/161/223 70/152/224
f 72/162/225 79/163/226 71/164/227
f 73/165/228 79/163/229 72/162/230
f 74/166/231 79/163/232 73/165/233
f 75/167/234 79/163/235 74/166/236
f 76/168/237 79/163/238 75/167/239
f 77/169/240 79/163/241 76/168/242
f 78/170/243 79/163/244 77/169/245
f 71/164/246 79/163/247 78/170/248
