# This file uses centimeters as units for non-parametric coordinates.

mtllib tramplin.mtl
g default
v -0.469288 0.067425 5.731768
v 3.371308 0.067425 5.731768
v -0.469288 1.023088 5.731768
v 3.371308 1.023089 5.731768
v -0.469288 0.039818 0.849096
v 3.371308 0.039818 0.849096
v -0.482725 0.922234 4.952446
v 3.381641 0.922234 4.952446
v 3.381641 0.061910 4.792082
v -0.482725 0.061911 4.792081
v -0.500000 0.750818 5.006001
v -0.482725 0.836286 5.760098
v 3.381641 0.836286 5.760098
v 3.394926 0.750818 5.006001
v -0.482725 0.262531 5.760098
v 3.381641 0.262531 5.760098
v 3.394926 0.251549 4.940123
v 3.386424 0.295494 1.405466
v -0.488944 0.295494 1.405466
v -0.500000 0.251549 4.940123
v -0.482725 0.088136 5.760098
v 3.381641 0.088136 5.760098
v 3.394926 0.084104 4.811456
v 3.381641 0.063515 0.394484
v -0.482725 0.063515 0.394484
v -0.500000 0.084104 4.811456
v 0.077232 0.066406 5.760098
v 0.077233 0.060100 -0.335607
v 0.077233 0.286716 0.907947
v 0.077232 0.930746 4.898891
v 0.077232 1.041375 5.760098
v 0.077232 0.839731 5.796523
v 0.077232 0.263413 5.796523
v 0.077232 0.088239 5.796523
v 2.845624 0.066406 5.760098
v 2.845624 0.088239 5.796523
v 2.845624 0.263413 5.796523
v 2.845624 0.839731 5.796523
v 2.845624 1.041375 5.760098
v 2.845624 0.930746 4.898891
v 2.845625 0.286716 0.907947
v 2.845625 0.060100 -0.335607
v 3.394926 0.233592 3.099425
v 3.394925 0.073758 2.584758
v 3.381641 0.123347 0.661490
v 0.077233 0.122558 -0.030457
v 2.845625 0.122558 -0.030457
v 1.463424 0.060100 -0.335607
v -0.500000 0.073758 2.584758
v -0.500000 0.128376 4.849600
v -0.482725 0.123347 0.661490
v -0.500000 0.087827 5.650822
v -0.482725 0.130930 5.760098
v 0.077232 0.070379 5.796523
v 2.845624 0.070379 5.796523
v 3.381640 0.066382 5.650823
v 3.394925 0.065847 4.795608
v 3.381640 0.070355 5.760098
v 3.381640 0.048542 2.507262
v 3.381640 0.039622 0.283546
v 0.077233 0.035255 -0.462394
v 2.845624 0.035255 -0.462394
v -0.482725 0.048542 2.507262
v -0.500000 0.065847 4.795608
v -0.482725 0.039622 0.283546
v -0.482725 0.066382 5.650822
v -0.482725 0.070355 5.760098
v -0.482725 0.638686 3.148717
v -0.430899 0.066406 5.760098
v -0.430898 0.060100 -0.335607
v -0.430898 0.286716 0.907947
v -0.430899 0.930745 4.898892
v -0.430899 1.041375 5.760098
v -0.430899 0.839731 5.796523
v -0.430899 0.263413 5.796523
v -0.430899 0.088239 5.796523
v 3.341785 0.066406 5.760098
v 3.341785 0.088239 5.796523
v 3.341785 0.263413 5.796523
v 3.341785 0.839731 5.796523
v 3.341785 1.041375 5.760098
v 3.341785 0.930745 4.898892
v 3.341785 0.286716 0.907947
v 3.341785 0.060100 -0.335607
v 0.077232 0.988040 5.796523
v 1.463423 0.839731 5.796523
v 2.845624 0.988040 5.796523
v 1.463423 1.041375 5.760098
v 0.077233 0.616665 2.934498
v 1.463423 0.930745 4.898892
v 2.845624 0.616665 2.934498
v 1.463424 0.286716 0.907947
v 3.394926 0.896697 5.113110
v 3.394926 0.552966 3.362936
v 3.381641 0.638686 3.148717
v -0.500000 0.233592 3.099425
v -0.500000 0.506506 5.113110
v -0.500000 0.552966 3.362936
v 0.077232 1.047296 5.650824
v 2.845624 1.047296 5.650823
v 3.394925 0.825953 5.650823
v 3.381640 1.028378 5.650823
v 3.381640 0.983936 5.760098
v 1.463423 0.066406 5.760098
v -0.500000 0.896697 5.113110
v -0.500000 0.825953 5.650823
v -0.482725 0.983936 5.760098
v -0.482725 1.028378 5.650823
v -0.500000 0.259886 5.650822
v -0.482725 0.546734 5.760098
v 0.077232 0.548885 5.796523
v 1.463423 0.263413 5.796523
v 2.845624 0.548885 5.796523
v 3.394925 0.259886 5.650823
v 3.394926 0.506506 5.113110
v 3.381640 0.546734 5.760098
v 0.077232 0.131224 5.796523
v 1.463423 0.088239 5.796523
v 2.845624 0.131224 5.796523
v 3.394925 0.087827 5.650823
v 3.394925 0.128376 4.849600
v 3.381640 0.130930 5.760098
v 1.463423 0.988040 5.796523
v 1.463424 0.616665 2.934498
v 3.394926 0.704746 3.791373
v -0.500000 0.422391 3.791373
v 1.463423 1.047296 5.650823
v 3.394926 0.971625 5.650823
v -0.500000 0.971625 5.650824
v -0.500000 0.540280 5.650823
v 1.463423 0.548885 5.796523
v 3.394926 0.540280 5.650823
v 1.463423 0.131224 5.796523
v 3.394926 0.130048 5.650823
v 3.394926 0.125714 2.737333
v 1.463425 0.122558 -0.030457
v -0.500000 0.125714 2.737332
v -0.500000 0.130048 5.650823
v 1.463423 0.070379 5.796523
v 3.394926 0.070285 5.650823
v 3.394926 0.052723 2.521364
v 1.463424 0.035255 -0.462394
v -0.500000 0.052723 2.521364
v -0.500000 0.070285 5.650823
v 3.394926 0.422391 3.791373
v -0.500000 0.704746 3.791373
v -0.430899 0.035255 -0.462394
v -0.430898 0.122558 -0.030457
v -0.430899 0.616665 2.934498
v -0.430899 1.047296 5.650823
v -0.430899 0.988040 5.796523
v -0.430899 0.548885 5.796523
v -0.430899 0.131224 5.796523
v -0.430899 0.070379 5.796523
v 3.341785 0.070379 5.796523
v 3.341785 0.131224 5.796523
v 3.341785 0.548885 5.796523
v 3.341785 0.988040 5.796523
v 3.341785 1.047296 5.650823
v 3.341785 0.616665 2.934498
v 3.341786 0.122558 -0.030457
v 3.341785 0.035255 -0.462394
vt 0.760937 0.163490
vt 0.751155 0.162993
vt 0.937074 0.160849
vt 0.509204 0.944784
vt 0.768046 0.459820
vt 0.766347 0.458067
vt 0.920666 0.208913
vt 0.594224 0.213138
vt 0.447186 0.946378
vt 0.752768 0.219956
vt 0.761212 0.221355
vt 0.888728 0.206187
vt 0.902730 0.160627
vt 0.609577 0.163837
vt 0.625576 0.209297
vt 0.799509 0.162028
vt 0.713161 0.162442
vt 0.716282 0.211692
vt 0.716662 0.425386
vt 0.164340 0.956212
vt 0.815190 0.425188
vt 0.797868 0.211738
vt 0.767865 0.162281
vt 0.744990 0.161797
vt 0.746905 0.218899
vt 0.761166 0.485654
vt 0.083024 0.968601
vt 0.776614 0.487135
vt 0.767699 0.220067
vt 0.758786 0.127990
vt 0.026473 0.167569
vt 0.125714 0.167609
vt 0.443029 0.167620
vt 0.943849 0.125942
vt 0.905200 0.126315
vt 0.800492 0.127481
vt 0.768679 0.127868
vt 0.755789 0.128996
vt 0.745898 0.129079
vt 0.714101 0.129374
vt 0.609528 0.130514
vt 0.511428 0.819383
vt 0.443096 0.819449
vt 0.125714 0.819415
vt 0.026460 0.819693
vt 0.586584 0.047068
vt 0.286895 0.494339
vt 0.636916 0.282608
vt 0.831228 0.280611
vt 0.502785 0.493974
vt 0.584438 0.170683
vt 0.927455 0.166486
vt 0.849513 0.167999
vt 0.666191 0.046339
vt 0.663018 0.169749
vt 0.741926 0.045644
vt 0.737573 0.168558
vt 0.744241 0.344324
vt 0.050905 0.494013
vt 0.780013 0.345374
vt 0.775038 0.168940
vt 0.752958 0.045545
vt 0.748458 0.168334
vt 0.757989 0.357116
vt 0.016311 0.494029
vt 0.767400 0.358690
vt 0.764152 0.169048
vt 0.687970 0.281666
vt 0.882272 0.279677
vt 0.016333 0.047904
vt 0.050929 0.047905
vt 0.286890 0.048141
vt 0.502754 0.047907
vt 0.930159 0.156905
vt 0.851175 0.157503
vt 0.776175 0.158593
vt 0.765332 0.158859
vt 0.747274 0.158983
vt 0.736517 0.158976
vt 0.661538 0.159879
vt 0.582674 0.161056
vt 0.502834 0.936200
vt 0.286882 0.937057
vt 0.051047 0.935846
vt 0.016456 0.937447
vt 0.932141 0.126058
vt 0.907592 0.042477
vt 0.582612 0.130818
vt 0.511376 0.493966
vt 0.286891 0.167814
vt 0.443049 0.494043
vt 0.286889 0.820070
vt 0.125706 0.494027
vt 0.598837 0.203279
vt 0.665314 0.308022
vt 0.650087 0.321287
vt 0.303778 0.946659
vt 0.798581 0.323107
vt 0.844014 0.200510
vt 0.855583 0.306057
vt 0.502761 0.167570
vt 0.502836 0.819386
vt 0.611043 0.170445
vt 0.573843 0.170791
vt 0.502639 0.946552
vt 0.582758 0.164106
vt 0.759602 0.045485
vt 0.915164 0.199259
vt 0.901117 0.167185
vt 0.929061 0.160240
vt 0.938190 0.166077
vt 0.798689 0.168684
vt 0.850712 0.161326
vt 0.852345 0.126874
vt 0.803042 0.043654
vt 0.662305 0.129922
vt 0.713912 0.168996
vt 0.669682 0.202068
vt 0.661887 0.163134
vt 0.776485 0.127773
vt 0.771275 0.044011
vt 0.738095 0.129147
vt 0.745266 0.168399
vt 0.738800 0.216745
vt 0.737009 0.162083
vt 0.723826 0.322825
vt 0.754025 0.353360
vt 0.749670 0.469732
vt 0.104450 0.965751
vt 0.050925 0.167574
vt 0.050916 0.819397
vt 0.026453 0.494028
vt 0.771032 0.354783
vt 0.775657 0.217612
vt 0.786584 0.470782
vt 0.767345 0.169015
vt 0.775718 0.162317
vt 0.765437 0.127908
vt 0.749140 0.129052
vt 0.750965 0.168279
vt 0.750247 0.219794
vt 0.748353 0.161580
vt 0.760552 0.357918
vt 0.765767 0.492273
vt 0.074121 0.969419
vt 0.016331 0.167567
vt 0.016318 0.819753
vt 0.764214 0.359605
vt 0.764421 0.221087
vt 0.772649 0.493926
vt 0.760949 0.169074
vt 0.764584 0.162195
vt 0.871948 0.318703
vt 0.758842 0.159204
vt 0.779774 0.531325
vt 0.817744 0.455418
vt 0.929105 0.212358
vt 0.941847 0.157411
vt 0.903444 0.156879
vt 0.799842 0.158207
vt 0.768514 0.158768
vt 0.753690 0.159196
vt 0.744123 0.158963
vt 0.712912 0.159212
vt 0.609182 0.160591
vt 0.511408 0.936346
vt 0.443134 0.936207
vt 0.125689 0.936215
vt 0.026599 0.937103
vt 0.443020 0.047953
vt 0.948232 0.166005
vt 0.511345 0.047903
vt 0.125723 0.047946
vt 0.875423 0.331983
vt 0.026476 0.047903
vt 0.790176 0.512665
vt 0.775627 0.539072
vt 0.571113 0.161600
vt 0.574638 0.165121
vt 0.570905 0.130946
vt 0.574876 0.047171
vt 0.511352 0.167565
vt 0.761392 0.044122
vt 0.768036 0.044047
vt 0.749720 0.045574
vt 0.779069 0.043923
vt 0.717954 0.045861
vt 0.854825 0.043070
vt 0.613466 0.046827
vt 0.934493 0.042171
vt 0.946205 0.042037
vn 0.000000 0.926322 0.376734
vn -0.000000 0.177763 0.984073
vn -0.000000 0.177763 0.984073
vn 0.000000 0.926322 0.376733
vn 0.000000 -0.000000 1.000000
vn 0.000000 0.000000 1.000000
vn 0.000000 0.000000 1.000000
vn 0.000000 0.177763 0.984073
vn -0.000000 0.926322 0.376733
vn -0.000000 0.986397 -0.164382
vn 0.000000 0.987228 -0.159312
vn 0.000000 0.987228 -0.159312
vn 0.000000 0.986397 -0.164382
vn 0.000000 0.987666 -0.156579
vn -0.000000 0.987666 -0.156579
vn 0.000000 0.987666 -0.156579
vn 0.000000 0.987228 -0.159312
vn 0.000000 0.986397 -0.164382
vn 0.790980 0.604673 -0.093383
vn 0.997658 0.067670 -0.009996
vn 0.995592 0.092685 -0.014365
vn 0.884612 0.459937 -0.076942
vn 1.000000 -0.000001 0.000000
vn 0.999532 0.029523 -0.008021
vn 0.976957 0.209520 -0.040699
vn -0.962142 0.267544 -0.051995
vn -0.999992 0.002574 -0.003064
vn -1.000000 0.000400 -0.000484
vn -0.999209 0.038379 -0.010427
vn -1.000000 0.000000 0.000000
vn -1.000000 0.000000 -0.000000
vn -1.000000 0.000000 0.000000
vn 0.000000 0.991850 -0.127412
vn -0.000000 0.991850 -0.127412
vn -0.000000 0.991850 -0.127412
vn 0.937133 0.000000 0.348972
vn 0.999786 -0.000000 0.020673
vn 0.997036 0.076351 0.009530
vn 0.928358 0.083970 0.362079
vn 0.760609 0.644764 -0.075852
vn 0.798347 0.567797 0.200623
vn -0.697200 0.708456 -0.109557
vn -0.996030 0.088064 -0.013011
vn -0.995020 0.098910 0.012337
vn -0.671687 0.735756 -0.086600
vn -0.999639 -0.000000 0.026875
vn -0.900207 -0.000000 0.435463
vn -0.889280 0.101671 0.445920
vn -0.713555 0.658627 0.238852
vn -0.999677 -0.000000 0.025430
vn -0.902835 -0.000000 0.429988
vn -0.999731 0.000000 0.023175
vn -0.903523 -0.000000 0.428539
vn 0.000000 0.000000 1.000000
vn 0.000000 0.000000 1.000000
vn -0.000000 0.000000 1.000000
vn -0.000000 0.000000 1.000000
vn 0.000000 -0.000000 1.000000
vn 0.000000 0.000000 1.000000
vn 0.939490 0.000000 0.342575
vn 0.999841 -0.000000 0.017824
vn 0.999809 0.000000 0.019560
vn 0.939002 -0.000000 0.343913
vn 1.000000 -0.000001 0.000000
vn 1.000000 -0.000000 0.000000
vn -0.000000 0.000000 1.000000
vn -0.000000 0.000000 1.000000
vn 0.000000 -0.000000 1.000000
vn 0.000000 0.000000 1.000000
vn 0.000000 -0.000000 1.000000
vn 0.000000 -0.000000 1.000000
vn 0.939038 0.000000 0.343815
vn 0.999903 -0.000000 0.013967
vn 0.999883 0.000000 0.015322
vn 0.939211 -0.000000 0.343341
vn 1.000000 0.000001 -0.000000
vn 1.000000 -0.000001 0.000000
vn 0.999995 0.001978 -0.002356
vn 0.999982 0.004381 -0.004012
vn 0.987143 0.156271 -0.033597
vn 0.999858 0.016271 -0.004331
vn 0.991420 0.127713 -0.027871
vn -0.000000 0.980179 -0.198113
vn -0.000000 0.983798 -0.179280
vn -0.000000 0.983798 -0.179280
vn -0.000000 0.980179 -0.198113
vn 0.000000 0.983798 -0.179280
vn 0.000000 0.980179 -0.198113
vn -0.985629 0.165039 -0.036016
vn -0.999760 0.021167 -0.005631
vn -0.999970 0.005699 -0.005217
vn -0.978560 0.201362 -0.043290
vn -1.000000 0.000000 0.000000
vn -1.000000 0.000000 0.000000
vn -0.999802 -0.000000 0.019923
vn -0.903130 0.000000 0.429367
vn -0.999835 0.000000 0.018160
vn -0.902886 -0.000000 0.429880
vn 0.000000 0.000013 1.000000
vn 0.000000 0.000013 1.000000
vn -0.000000 -0.994104 0.108431
vn 0.000000 -0.994104 0.108431
vn -0.000000 -0.994104 0.108431
vn 0.000000 -0.994104 0.108431
vn 0.000000 -0.994104 0.108432
vn -0.000000 -0.994104 0.108432
vn 0.000000 0.000013 1.000000
vn 0.196919 -0.979051 0.051793
vn 0.277683 -0.960637 0.008243
vn 0.278265 -0.960473 0.007839
vn 0.126492 -0.988802 0.079189
vn 0.287423 -0.957788 0.005440
vn 0.286604 -0.958034 0.005367
vn 0.999906 -0.000002 0.013704
vn 1.000000 -0.000008 0.000000
vn 0.939007 -0.000015 0.343897
vn 0.999751 0.021607 -0.005568
vn 0.973526 0.223878 -0.046098
vn 0.281164 -0.959646 0.005196
vn 0.263494 -0.964651 0.004346
vn 0.253775 -0.967256 0.003880
vn 0.253775 -0.967256 0.003880
vn -0.000000 0.981335 -0.192304
vn -0.000000 0.981335 -0.192304
vn 0.000000 0.981335 -0.192304
vn -0.197777 -0.980239 0.003932
vn -0.206724 -0.978389 0.004480
vn -0.218797 -0.975756 0.005220
vn -0.197777 -0.980239 0.003932
vn -0.224797 -0.974390 0.005527
vn -0.224276 -0.974510 0.005468
vn -0.999579 0.028091 -0.007239
vn -1.000000 0.000000 0.000000
vn -0.956437 0.285939 -0.058877
vn -0.999841 0.000000 0.017819
vn -0.902843 0.000001 0.429971
vn -0.217534 -0.976021 0.007898
vn -0.216909 -0.976155 0.008445
vn -0.104440 -0.991616 0.076087
vn -0.147276 -0.987572 0.054886
vn 1.000000 0.000306 -0.000372
vn -0.992590 0.120080 -0.018612
vn -0.826098 0.555780 -0.093114
vn -0.159927 0.967518 -0.195787
vn -0.033543 0.980763 -0.192299
vn -0.116617 0.979311 -0.165379
vn -0.133939 0.974673 -0.179092
vn -0.030120 0.987226 -0.156453
vn -0.075553 0.984198 -0.160144
vn -0.036105 0.923685 0.381447
vn -0.029699 0.991411 -0.127367
vn -0.064125 -0.000000 0.997942
vn -0.059099 0.175382 0.982725
vn -0.064973 0.000000 0.997887
vn -0.064795 -0.000000 0.997899
vn -0.064808 -0.000000 0.997898
vn -0.064871 0.000000 0.997894
vn -0.008534 -0.994286 0.106404
vn -0.003986 -0.994199 0.107486
vn -0.064797 0.000012 0.997899
vn 0.067680 0.000011 0.997707
vn 0.067691 0.000000 0.997706
vn 0.009421 -0.994246 0.106709
vn 0.003605 -0.994169 0.107774
vn 0.067772 -0.000000 0.997701
vn 0.067899 0.000000 0.997692
vn 0.067676 -0.000000 0.997707
vn 0.066839 0.000000 0.997764
vn 0.060745 0.175560 0.982593
vn 0.036238 0.923828 0.381089
vn 0.030742 0.991381 -0.127352
vn 0.032184 0.987160 -0.156461
vn 0.079855 0.983905 -0.159858
vn 0.120946 0.978872 -0.164868
vn 0.138227 0.974147 -0.178692
vn 0.165364 0.966649 -0.195563
vn 0.033602 0.980766 -0.192275
s 1
g tramplin
usemtl initialShadingGroup
f 31/34/1 85/86/2 123/190/3 88/191/4
f 85/86/2 32/35/5 86/87/6 123/190/3
f 123/46/3 86/189/6 38/41/7 87/88/8
f 88/181/4 123/46/3 87/88/8 39/180/9
f 29/32/10 89/90/11 124/47/12 92/93/13
f 89/90/11 30/33/14 90/91/15 124/47/12
f 124/47/12 90/91/15 40/43/16 91/92/17
f 92/93/13 124/47/12 91/92/17 41/44/18
f 8/8/19 93/94/20 125/48/21 95/96/22
f 14/15/23 94/95/24 125/48/21 93/94/20
f 18/19/25 95/96/22 125/48/21 94/95/24
f 19/21/26 96/98/27 126/49/28 98/100/29
f 20/22/30 97/99/31 126/49/28 96/98/27
f 11/12/32 98/100/29 126/49/28 97/99/31
f 30/33/14 99/101/33 127/50/34 90/91/15
f 99/101/33 31/182/1 88/89/4 127/50/34
f 127/50/34 88/89/4 39/42/9 100/102/35
f 90/91/15 127/50/34 100/102/35 40/43/16
f 13/14/36 101/103/37 128/51/38 103/106/39
f 101/103/37 14/15/23 93/94/20 128/51/38
f 128/51/38 93/94/20 8/8/19 102/104/40
f 103/106/39 128/51/38 102/104/40 4/179/41
f 7/7/42 105/108/43 129/52/44 108/111/45
f 105/108/43 11/12/32 106/109/46 129/52/44
f 129/52/44 106/109/46 12/13/47 107/110/48
f 108/111/45 129/52/44 107/110/48 3/3/49
f 12/13/47 106/109/46 130/53/50 110/113/51
f 106/109/46 11/12/32 97/99/31 130/53/50
f 130/53/50 97/99/31 20/22/30 109/112/52
f 110/113/51 130/53/50 109/112/52 15/16/53
f 32/35/5 111/114/54 131/188/55 86/87/6
f 111/114/54 33/36/56 112/115/57 131/188/55
f 131/54/55 112/187/57 37/40/58 113/116/59
f 86/189/6 131/54/55 113/116/59 38/41/7
f 16/17/60 114/117/61 132/55/62 116/119/63
f 114/117/61 17/18/64 115/118/65 132/55/62
f 132/55/62 115/118/65 14/15/23 101/103/37
f 116/119/63 132/55/62 101/103/37 13/14/36
f 33/36/56 117/120/66 133/186/67 112/115/57
f 117/120/66 34/37/68 118/121/69 133/186/67
f 133/56/67 118/185/69 36/39/70 119/122/71
f 112/187/57 133/56/67 119/122/71 37/40/58
f 22/24/72 120/123/73 134/57/74 122/125/75
f 120/123/73 23/25/76 121/124/77 134/57/74
f 134/57/74 121/124/77 17/18/64 114/117/61
f 122/125/75 134/57/74 114/117/61 16/17/60
f 18/19/25 43/126/78 135/58/79 45/128/80
f 43/126/78 17/18/64 121/124/77 135/58/79
f 135/58/79 121/124/77 23/25/76 44/127/81
f 45/128/80 135/58/79 44/127/81 24/26/82
f 28/31/83 46/130/84 136/59/85 48/132/86
f 46/130/84 29/32/10 92/93/13 136/59/85
f 136/59/85 92/93/13 41/44/18 47/131/87
f 48/132/86 136/59/85 47/131/87 42/45/88
f 25/28/89 49/133/90 137/60/91 51/135/92
f 49/133/90 26/29/93 50/134/94 137/60/91
f 137/60/91 50/134/94 20/22/30 96/98/27
f 51/135/92 137/60/91 96/98/27 19/21/26
f 15/16/53 109/112/52 138/61/95 53/137/96
f 109/112/52 20/22/30 50/134/94 138/61/95
f 138/61/95 50/134/94 26/29/93 52/136/97
f 53/137/96 138/61/95 52/136/97 21/23/98
f 34/37/68 54/138/99 139/184/100 118/121/69
s 11
f 54/138/101 27/30/102 104/183/103 139/184/104
f 139/62/104 104/107/103 35/38/105 55/139/106
s 1
f 118/185/69 139/62/100 55/139/107 36/39/70
s 11
f 2/2/108 56/140/109 140/63/110 58/142/111
f 56/140/109 9/10/112 57/141/113 140/63/110
s 1
f 140/63/114 57/141/115 23/25/76 120/123/73
f 58/142/116 140/63/114 120/123/73 22/24/72
f 24/26/82 44/127/81 141/64/117 60/144/118
f 44/127/81 23/25/76 57/141/115 141/64/117
s 11
f 141/64/119 57/141/113 9/10/112 59/143/120
f 60/144/121 141/64/119 59/143/120 6/6/122
s 1
f 61/146/123 28/31/83 48/132/86 142/65/124
f 142/65/124 48/132/86 42/45/88 62/147/125
s 11
f 5/5/126 63/148/127 143/66/128 65/150/129
f 63/148/127 10/11/130 64/149/131 143/66/128
s 1
f 143/66/132 64/149/133 26/29/93 49/133/90
f 65/150/134 143/66/132 49/133/90 25/28/89
f 21/23/98 52/136/97 144/67/135 67/152/136
f 52/136/97 26/29/93 64/149/133 144/67/135
s 11
f 144/67/137 64/149/131 10/11/130 66/151/138
f 67/152/139 144/67/137 66/151/138 1/1/140
s 1
f 18/19/25 94/95/24 145/68/141 43/126/78
f 14/15/23 115/118/65 145/68/141 94/95/24
f 17/18/64 43/126/78 145/68/141 115/118/65
f 19/21/26 98/100/29 146/69/142 68/153/143
f 11/12/32 105/108/43 146/69/142 98/100/29
f 7/7/42 68/153/143 146/69/142 105/108/43
f 25/28/89 70/155/144 147/177/145 65/150/134
f 70/175/144 28/31/83 61/146/123 147/70/145
f 19/21/26 71/156/146 148/176/147 51/135/92
f 71/173/146 29/32/10 46/130/84 148/71/147
f 148/71/147 46/130/84 28/31/83 70/175/144
f 51/135/92 148/176/147 70/155/144 25/28/89
f 7/7/42 72/157/148 149/174/149 68/153/143
f 72/170/148 30/33/14 89/90/11 149/72/149
f 149/72/149 89/90/11 29/32/10 71/173/146
f 68/153/143 149/174/149 71/156/146 19/21/26
f 3/3/49 73/158/150 150/171/151 108/111/45
f 73/172/150 31/182/1 99/101/33 150/73/151
f 150/73/151 99/101/33 30/33/14 72/170/148
f 108/111/45 150/171/151 72/157/148 7/7/42
f 12/13/47 74/159/152 151/74/153 107/110/48
f 74/159/152 32/35/5 85/86/2 151/74/153
f 151/74/153 85/86/2 31/34/1 73/158/150
f 107/110/48 151/74/153 73/158/150 3/3/49
f 15/16/53 75/160/154 152/75/155 110/113/51
f 75/160/154 33/36/56 111/114/54 152/75/155
f 152/75/155 111/114/54 32/35/5 74/159/152
f 110/113/51 152/75/155 74/159/152 12/13/47
f 21/23/98 76/161/156 153/76/157 53/137/96
f 76/161/156 34/37/68 117/120/66 153/76/157
f 153/76/157 117/120/66 33/36/56 75/160/154
f 53/137/96 153/76/157 75/160/154 15/16/53
s 11
f 1/1/140 69/154/158 154/77/159 67/152/139
f 69/154/158 27/30/102 54/138/101 154/77/159
s 1
f 154/77/160 54/138/99 34/37/68 76/161/156
f 67/152/136 154/77/160 76/161/156 21/23/98
f 36/39/70 55/139/107 155/78/161 78/163/162
s 11
f 55/139/106 35/38/105 77/162/163 155/78/164
f 155/78/164 77/162/163 2/2/108 58/142/111
s 1
f 78/163/162 155/78/161 58/142/116 22/24/72
f 37/40/58 119/122/71 156/79/165 79/164/166
f 119/122/71 36/39/70 78/163/162 156/79/165
f 156/79/165 78/163/162 22/24/72 122/125/75
f 79/164/166 156/79/165 122/125/75 16/17/60
f 38/41/7 113/116/59 157/80/167 80/165/168
f 113/116/59 37/40/58 79/164/166 157/80/167
f 157/80/167 79/164/166 16/17/60 116/119/63
f 80/165/168 157/80/167 116/119/63 13/14/36
f 39/180/9 87/88/8 158/81/169 81/178/170
f 87/88/8 38/41/7 80/165/168 158/81/169
f 158/81/169 80/165/168 13/14/36 103/106/39
f 81/178/170 158/81/169 103/106/39 4/179/41
f 40/43/16 100/102/35 159/82/171 82/167/172
f 100/102/35 39/42/9 81/166/170 159/82/171
f 159/82/171 81/166/170 4/4/41 102/105/40
f 82/167/172 159/82/171 102/105/40 8/9/19
f 41/44/18 91/92/17 160/83/173 83/168/174
f 91/92/17 40/43/16 82/167/172 160/83/173
f 160/83/173 82/167/172 8/9/19 95/97/22
f 83/168/174 160/83/173 95/97/22 18/20/25
f 42/45/88 47/131/87 161/84/175 84/169/176
f 47/131/87 41/44/18 83/168/174 161/84/175
f 161/84/175 83/168/174 18/20/25 45/129/80
f 84/169/176 161/84/175 45/129/80 24/27/82
f 62/147/125 42/45/88 84/169/176 162/85/177
f 162/85/177 84/169/176 24/27/82 60/145/118
